<svg width="919" height="210" viewBox="0 0 919 210" fill="none" xmlns="http://www.w3.org/2000/svg">
<g filter="url(#filter0_d_2_23)">
<path d="M7.32 206V9.99999H87.96C105.32 9.99999 120.16 12.8 132.48 18.4C144.987 24 154.6 32.0267 161.32 42.48C168.04 52.9333 171.4 65.3467 171.4 79.72C171.4 94.0933 168.04 106.507 161.32 116.96C154.6 127.413 144.987 135.44 132.48 141.04C120.16 146.64 105.32 149.44 87.96 149.44H27.48L43.72 132.36V206H7.32ZM43.72 136.28L27.48 118.64H86.28C102.333 118.64 114.373 115.28 122.4 108.56C130.613 101.653 134.72 92.04 134.72 79.72C134.72 67.2133 130.613 57.6 122.4 50.88C114.373 44.16 102.333 40.8 86.28 40.8H27.48L43.72 22.88V136.28ZM170.186 206L258.386 9.99999H294.226L382.706 206H344.626L268.746 29.32H283.306L207.706 206H170.186ZM210.786 160.64L220.586 132.08H326.426L336.226 160.64H210.786ZM455.202 206L369.522 9.99999H409.002L485.442 187.24H462.762L540.042 9.99999H576.442L491.042 206H455.202ZM597.125 206V9.99999H633.525V175.2H736.005V206H597.125ZM798.342 91.48H895.782V121.44H798.342V91.48ZM801.142 175.48H911.742V206H764.742V9.99999H907.822V40.52H801.142V175.48Z" fill="#B0B0B0" fill-opacity="0.07" shape-rendering="crispEdges"/>
</g>
<defs>
<filter id="filter0_d_2_23" x="0.320007" y="-1.52588e-05" width="918.422" height="210" filterUnits="userSpaceOnUse" color-interpolation-filters="sRGB">
<feFlood flood-opacity="0" result="BackgroundImageFix"/>
<feColorMatrix in="SourceAlpha" type="matrix" values="0 0 0 0 0 0 0 0 0 0 0 0 0 0 0 0 0 0 127 0" result="hardAlpha"/>
<feOffset dy="-3"/>
<feGaussianBlur stdDeviation="3.5"/>
<feComposite in2="hardAlpha" operator="out"/>
<feColorMatrix type="matrix" values="0 0 0 0 0 0 0 0 0 0 0 0 0 0 0 0 0 0 0.25 0"/>
<feBlend mode="normal" in2="BackgroundImageFix" result="effect1_dropShadow_2_23"/>
<feBlend mode="normal" in="SourceGraphic" in2="effect1_dropShadow_2_23" result="shape"/>
</filter>
</defs>
</svg>
